<?xml version="1.0" encoding="UTF-8" standalone="no"?>
<!DOCTYPE svg PUBLIC "-//W3C//DTD SVG 1.1//EN"
 "http://www.w3.org/Graphics/SVG/1.1/DTD/svg11.dtd">
<!-- Generated by graphviz version 14.1.1 (20251213.1925)
 -->
<!-- Title: InheritanceTree Pages: 1 -->
<svg width="491pt" height="2373pt"
 viewBox="0.00 0.00 491.00 2373.00" xmlns="http://www.w3.org/2000/svg" xmlns:xlink="http://www.w3.org/1999/xlink">
<g id="graph0" class="graph" transform="scale(1 1) rotate(0) translate(4 2368.5)">
<title>InheritanceTree</title>
<polygon fill="white" stroke="none" points="-4,4 -4,-2368.5 486.75,-2368.5 486.75,4 -4,4"/>
<text xml:space="preserve" text-anchor="middle" x="241.38" y="-7.2" font-family="Times New Roman,serif" font-size="14.00">simple_notebook &#45; Inheritance Hierarchy</text>
<!-- ACCUMULATED_CLASS_GENERATOR -->
<g id="node1" class="node">
<title>ACCUMULATED_CLASS_GENERATOR</title>
<path fill="none" stroke="black" d="M242.5,-60.5C242.5,-60.5 12,-60.5 12,-60.5 6,-60.5 0,-54.5 0,-48.5 0,-48.5 0,-36.5 0,-36.5 0,-30.5 6,-24.5 12,-24.5 12,-24.5 242.5,-24.5 242.5,-24.5 248.5,-24.5 254.5,-30.5 254.5,-36.5 254.5,-36.5 254.5,-48.5 254.5,-48.5 254.5,-54.5 248.5,-60.5 242.5,-60.5"/>
<text xml:space="preserve" text-anchor="middle" x="127.25" y="-37.45" font-family="Times New Roman,serif" font-size="14.00">ACCUMULATED_CLASS_GENERATOR</text>
</g>
<!-- CELL_CLASSIFIER -->
<g id="node2" class="node">
<title>CELL_CLASSIFIER</title>
<path fill="none" stroke="black" d="M181.38,-132.5C181.38,-132.5 73.12,-132.5 73.12,-132.5 67.12,-132.5 61.12,-126.5 61.12,-120.5 61.12,-120.5 61.12,-108.5 61.12,-108.5 61.12,-102.5 67.12,-96.5 73.12,-96.5 73.12,-96.5 181.38,-96.5 181.38,-96.5 187.38,-96.5 193.38,-102.5 193.38,-108.5 193.38,-108.5 193.38,-120.5 193.38,-120.5 193.38,-126.5 187.38,-132.5 181.38,-132.5"/>
<text xml:space="preserve" text-anchor="middle" x="127.25" y="-109.45" font-family="Times New Roman,serif" font-size="14.00">CELL_CLASSIFIER</text>
</g>
<!-- CELL_EXECUTOR -->
<g id="node3" class="node">
<title>CELL_EXECUTOR</title>
<path fill="none" stroke="black" d="M179.5,-204.5C179.5,-204.5 75,-204.5 75,-204.5 69,-204.5 63,-198.5 63,-192.5 63,-192.5 63,-180.5 63,-180.5 63,-174.5 69,-168.5 75,-168.5 75,-168.5 179.5,-168.5 179.5,-168.5 185.5,-168.5 191.5,-174.5 191.5,-180.5 191.5,-180.5 191.5,-192.5 191.5,-192.5 191.5,-198.5 185.5,-204.5 179.5,-204.5"/>
<text xml:space="preserve" text-anchor="middle" x="127.25" y="-181.45" font-family="Times New Roman,serif" font-size="14.00">CELL_EXECUTOR</text>
</g>
<!-- COMPILATION_RESULT -->
<g id="node4" class="node">
<title>COMPILATION_RESULT</title>
<path fill="none" stroke="black" d="M197.88,-276.5C197.88,-276.5 56.62,-276.5 56.62,-276.5 50.62,-276.5 44.62,-270.5 44.62,-264.5 44.62,-264.5 44.62,-252.5 44.62,-252.5 44.62,-246.5 50.62,-240.5 56.62,-240.5 56.62,-240.5 197.88,-240.5 197.88,-240.5 203.88,-240.5 209.88,-246.5 209.88,-252.5 209.88,-252.5 209.88,-264.5 209.88,-264.5 209.88,-270.5 203.88,-276.5 197.88,-276.5"/>
<text xml:space="preserve" text-anchor="middle" x="127.25" y="-253.45" font-family="Times New Roman,serif" font-size="14.00">COMPILATION_RESULT</text>
</g>
<!-- COMPILER_ERROR -->
<g id="node5" class="node">
<title>COMPILER_ERROR</title>
<path fill="none" stroke="black" d="M183.62,-348.5C183.62,-348.5 70.87,-348.5 70.87,-348.5 64.88,-348.5 58.88,-342.5 58.88,-336.5 58.88,-336.5 58.88,-324.5 58.88,-324.5 58.88,-318.5 64.88,-312.5 70.88,-312.5 70.88,-312.5 183.62,-312.5 183.62,-312.5 189.62,-312.5 195.62,-318.5 195.62,-324.5 195.62,-324.5 195.62,-336.5 195.62,-336.5 195.62,-342.5 189.62,-348.5 183.62,-348.5"/>
<text xml:space="preserve" text-anchor="middle" x="127.25" y="-325.45" font-family="Times New Roman,serif" font-size="14.00">COMPILER_ERROR</text>
</g>
<!-- COMPILER_ERROR_PARSER -->
<g id="node6" class="node">
<title>COMPILER_ERROR_PARSER</title>
<path fill="none" stroke="black" d="M212.12,-420.5C212.12,-420.5 42.38,-420.5 42.38,-420.5 36.38,-420.5 30.38,-414.5 30.38,-408.5 30.38,-408.5 30.38,-396.5 30.38,-396.5 30.38,-390.5 36.38,-384.5 42.38,-384.5 42.38,-384.5 212.12,-384.5 212.12,-384.5 218.12,-384.5 224.12,-390.5 224.12,-396.5 224.12,-396.5 224.12,-408.5 224.12,-408.5 224.12,-414.5 218.12,-420.5 212.12,-420.5"/>
<text xml:space="preserve" text-anchor="middle" x="127.25" y="-397.45" font-family="Times New Roman,serif" font-size="14.00">COMPILER_ERROR_PARSER</text>
</g>
<!-- CONFIG_DETECTOR -->
<g id="node7" class="node">
<title>CONFIG_DETECTOR</title>
<path fill="none" stroke="black" d="M187,-492.5C187,-492.5 67.5,-492.5 67.5,-492.5 61.5,-492.5 55.5,-486.5 55.5,-480.5 55.5,-480.5 55.5,-468.5 55.5,-468.5 55.5,-462.5 61.5,-456.5 67.5,-456.5 67.5,-456.5 187,-456.5 187,-456.5 193,-456.5 199,-462.5 199,-468.5 199,-468.5 199,-480.5 199,-480.5 199,-486.5 193,-492.5 187,-492.5"/>
<text xml:space="preserve" text-anchor="middle" x="127.25" y="-469.45" font-family="Times New Roman,serif" font-size="14.00">CONFIG_DETECTOR</text>
</g>
<!-- CONFIG_WIZARD -->
<g id="node8" class="node">
<title>CONFIG_WIZARD</title>
<path fill="none" stroke="black" d="M179.12,-564.5C179.12,-564.5 75.38,-564.5 75.38,-564.5 69.38,-564.5 63.38,-558.5 63.38,-552.5 63.38,-552.5 63.38,-540.5 63.38,-540.5 63.38,-534.5 69.38,-528.5 75.38,-528.5 75.38,-528.5 179.12,-528.5 179.12,-528.5 185.12,-528.5 191.12,-534.5 191.12,-540.5 191.12,-540.5 191.12,-552.5 191.12,-552.5 191.12,-558.5 185.12,-564.5 179.12,-564.5"/>
<text xml:space="preserve" text-anchor="middle" x="127.25" y="-541.45" font-family="Times New Roman,serif" font-size="14.00">CONFIG_WIZARD</text>
</g>
<!-- EXECUTION_RESULT -->
<g id="node9" class="node">
<title>EXECUTION_RESULT</title>
<path fill="none" stroke="black" d="M190.38,-636.5C190.38,-636.5 64.12,-636.5 64.12,-636.5 58.12,-636.5 52.12,-630.5 52.12,-624.5 52.12,-624.5 52.12,-612.5 52.12,-612.5 52.12,-606.5 58.12,-600.5 64.12,-600.5 64.12,-600.5 190.38,-600.5 190.38,-600.5 196.38,-600.5 202.38,-606.5 202.38,-612.5 202.38,-612.5 202.38,-624.5 202.38,-624.5 202.38,-630.5 196.38,-636.5 190.38,-636.5"/>
<text xml:space="preserve" text-anchor="middle" x="127.25" y="-613.45" font-family="Times New Roman,serif" font-size="14.00">EXECUTION_RESULT</text>
</g>
<!-- LINE_MAPPING -->
<g id="node10" class="node">
<title>LINE_MAPPING</title>
<path fill="none" stroke="black" d="M172.75,-708.5C172.75,-708.5 81.75,-708.5 81.75,-708.5 75.75,-708.5 69.75,-702.5 69.75,-696.5 69.75,-696.5 69.75,-684.5 69.75,-684.5 69.75,-678.5 75.75,-672.5 81.75,-672.5 81.75,-672.5 172.75,-672.5 172.75,-672.5 178.75,-672.5 184.75,-678.5 184.75,-684.5 184.75,-684.5 184.75,-696.5 184.75,-696.5 184.75,-702.5 178.75,-708.5 172.75,-708.5"/>
<text xml:space="preserve" text-anchor="middle" x="127.25" y="-685.45" font-family="Times New Roman,serif" font-size="14.00">LINE_MAPPING</text>
</g>
<!-- LINE_MAPPING_ENTRY -->
<g id="node11" class="node">
<title>LINE_MAPPING_ENTRY</title>
<path fill="none" stroke="black" d="M198.25,-780.5C198.25,-780.5 56.25,-780.5 56.25,-780.5 50.25,-780.5 44.25,-774.5 44.25,-768.5 44.25,-768.5 44.25,-756.5 44.25,-756.5 44.25,-750.5 50.25,-744.5 56.25,-744.5 56.25,-744.5 198.25,-744.5 198.25,-744.5 204.25,-744.5 210.25,-750.5 210.25,-756.5 210.25,-756.5 210.25,-768.5 210.25,-768.5 210.25,-774.5 204.25,-780.5 198.25,-780.5"/>
<text xml:space="preserve" text-anchor="middle" x="127.25" y="-757.45" font-family="Times New Roman,serif" font-size="14.00">LINE_MAPPING_ENTRY</text>
</g>
<!-- NOTEBOOK -->
<g id="node12" class="node">
<title>NOTEBOOK</title>
<path fill="none" stroke="black" d="M160.38,-852.5C160.38,-852.5 94.12,-852.5 94.12,-852.5 88.12,-852.5 82.12,-846.5 82.12,-840.5 82.12,-840.5 82.12,-828.5 82.12,-828.5 82.12,-822.5 88.12,-816.5 94.12,-816.5 94.12,-816.5 160.38,-816.5 160.38,-816.5 166.38,-816.5 172.38,-822.5 172.38,-828.5 172.38,-828.5 172.38,-840.5 172.38,-840.5 172.38,-846.5 166.38,-852.5 160.38,-852.5"/>
<text xml:space="preserve" text-anchor="middle" x="127.25" y="-829.45" font-family="Times New Roman,serif" font-size="14.00">NOTEBOOK</text>
</g>
<!-- NOTEBOOK_CELL -->
<g id="node13" class="node">
<title>NOTEBOOK_CELL</title>
<path fill="none" stroke="black" d="M180.62,-924.5C180.62,-924.5 73.88,-924.5 73.88,-924.5 67.88,-924.5 61.88,-918.5 61.88,-912.5 61.88,-912.5 61.88,-900.5 61.88,-900.5 61.88,-894.5 67.88,-888.5 73.88,-888.5 73.88,-888.5 180.62,-888.5 180.62,-888.5 186.62,-888.5 192.62,-894.5 192.62,-900.5 192.62,-900.5 192.62,-912.5 192.62,-912.5 192.62,-918.5 186.62,-924.5 180.62,-924.5"/>
<text xml:space="preserve" text-anchor="middle" x="127.25" y="-901.45" font-family="Times New Roman,serif" font-size="14.00">NOTEBOOK_CELL</text>
</g>
<!-- NOTEBOOK_CONFIG -->
<g id="node14" class="node">
<title>NOTEBOOK_CONFIG</title>
<path fill="none" stroke="black" d="M188.88,-996.5C188.88,-996.5 65.62,-996.5 65.62,-996.5 59.62,-996.5 53.62,-990.5 53.62,-984.5 53.62,-984.5 53.62,-972.5 53.62,-972.5 53.62,-966.5 59.62,-960.5 65.62,-960.5 65.62,-960.5 188.88,-960.5 188.88,-960.5 194.88,-960.5 200.88,-966.5 200.88,-972.5 200.88,-972.5 200.88,-984.5 200.88,-984.5 200.88,-990.5 194.88,-996.5 188.88,-996.5"/>
<text xml:space="preserve" text-anchor="middle" x="127.25" y="-973.45" font-family="Times New Roman,serif" font-size="14.00">NOTEBOOK_CONFIG</text>
</g>
<!-- ANY -->
<g id="node15" class="node">
<title>ANY</title>
<path fill="none" stroke="black" d="M437.62,-996.5C437.62,-996.5 407.62,-996.5 407.62,-996.5 401.62,-996.5 395.62,-990.5 395.62,-984.5 395.62,-984.5 395.62,-972.5 395.62,-972.5 395.62,-966.5 401.62,-960.5 407.62,-960.5 407.62,-960.5 437.62,-960.5 437.62,-960.5 443.62,-960.5 449.62,-966.5 449.62,-972.5 449.62,-972.5 449.62,-984.5 449.62,-984.5 449.62,-990.5 443.62,-996.5 437.62,-996.5"/>
<text xml:space="preserve" text-anchor="middle" x="422.62" y="-973.45" font-family="Times New Roman,serif" font-size="14.00">ANY</text>
</g>
<!-- NOTEBOOK_CONFIG&#45;&gt;ANY -->
<g id="edge1" class="edge">
<title>NOTEBOOK_CONFIG&#45;&gt;ANY</title>
<path fill="none" stroke="black" d="M201.02,-978.5C201.02,-978.5 383.66,-978.5 383.66,-978.5"/>
<polygon fill="none" stroke="black" points="383.66,-982 393.66,-978.5 383.66,-975 383.66,-982"/>
</g>
<!-- NOTEBOOK_ENGINE -->
<g id="node16" class="node">
<title>NOTEBOOK_ENGINE</title>
<path fill="none" stroke="black" d="M188.88,-1068.5C188.88,-1068.5 65.62,-1068.5 65.62,-1068.5 59.62,-1068.5 53.62,-1062.5 53.62,-1056.5 53.62,-1056.5 53.62,-1044.5 53.62,-1044.5 53.62,-1038.5 59.62,-1032.5 65.62,-1032.5 65.62,-1032.5 188.88,-1032.5 188.88,-1032.5 194.88,-1032.5 200.88,-1038.5 200.88,-1044.5 200.88,-1044.5 200.88,-1056.5 200.88,-1056.5 200.88,-1062.5 194.88,-1068.5 188.88,-1068.5"/>
<text xml:space="preserve" text-anchor="middle" x="127.25" y="-1045.45" font-family="Times New Roman,serif" font-size="14.00">NOTEBOOK_ENGINE</text>
</g>
<!-- NOTEBOOK_STORAGE -->
<g id="node17" class="node">
<title>NOTEBOOK_STORAGE</title>
<path fill="none" stroke="black" d="M194.88,-1140.5C194.88,-1140.5 59.62,-1140.5 59.62,-1140.5 53.62,-1140.5 47.62,-1134.5 47.62,-1128.5 47.62,-1128.5 47.62,-1116.5 47.62,-1116.5 47.62,-1110.5 53.62,-1104.5 59.62,-1104.5 59.62,-1104.5 194.88,-1104.5 194.88,-1104.5 200.88,-1104.5 206.88,-1110.5 206.88,-1116.5 206.88,-1116.5 206.88,-1128.5 206.88,-1128.5 206.88,-1134.5 200.88,-1140.5 194.88,-1140.5"/>
<text xml:space="preserve" text-anchor="middle" x="127.25" y="-1117.45" font-family="Times New Roman,serif" font-size="14.00">NOTEBOOK_STORAGE</text>
</g>
<!-- SYNTAX_COMPLETENESS_CHECKER -->
<g id="node18" class="node">
<title>SYNTAX_COMPLETENESS_CHECKER</title>
<path fill="none" stroke="black" d="M241,-1212.5C241,-1212.5 13.5,-1212.5 13.5,-1212.5 7.5,-1212.5 1.5,-1206.5 1.5,-1200.5 1.5,-1200.5 1.5,-1188.5 1.5,-1188.5 1.5,-1182.5 7.5,-1176.5 13.5,-1176.5 13.5,-1176.5 241,-1176.5 241,-1176.5 247,-1176.5 253,-1182.5 253,-1188.5 253,-1188.5 253,-1200.5 253,-1200.5 253,-1206.5 247,-1212.5 241,-1212.5"/>
<text xml:space="preserve" text-anchor="middle" x="127.25" y="-1189.45" font-family="Times New Roman,serif" font-size="14.00">SYNTAX_COMPLETENESS_CHECKER</text>
</g>
<!-- VARIABLE_CHANGE -->
<g id="node19" class="node">
<title>VARIABLE_CHANGE</title>
<path fill="none" stroke="black" d="M188.12,-1284.5C188.12,-1284.5 66.38,-1284.5 66.38,-1284.5 60.38,-1284.5 54.38,-1278.5 54.38,-1272.5 54.38,-1272.5 54.38,-1260.5 54.38,-1260.5 54.38,-1254.5 60.38,-1248.5 66.38,-1248.5 66.38,-1248.5 188.12,-1248.5 188.12,-1248.5 194.12,-1248.5 200.12,-1254.5 200.12,-1260.5 200.12,-1260.5 200.12,-1272.5 200.12,-1272.5 200.12,-1278.5 194.12,-1284.5 188.12,-1284.5"/>
<text xml:space="preserve" text-anchor="middle" x="127.25" y="-1261.45" font-family="Times New Roman,serif" font-size="14.00">VARIABLE_CHANGE</text>
</g>
<!-- VARIABLE_INFO -->
<g id="node20" class="node">
<title>VARIABLE_INFO</title>
<path fill="none" stroke="black" d="M175.75,-1356.5C175.75,-1356.5 78.75,-1356.5 78.75,-1356.5 72.75,-1356.5 66.75,-1350.5 66.75,-1344.5 66.75,-1344.5 66.75,-1332.5 66.75,-1332.5 66.75,-1326.5 72.75,-1320.5 78.75,-1320.5 78.75,-1320.5 175.75,-1320.5 175.75,-1320.5 181.75,-1320.5 187.75,-1326.5 187.75,-1332.5 187.75,-1332.5 187.75,-1344.5 187.75,-1344.5 187.75,-1350.5 181.75,-1356.5 175.75,-1356.5"/>
<text xml:space="preserve" text-anchor="middle" x="127.25" y="-1333.45" font-family="Times New Roman,serif" font-size="14.00">VARIABLE_INFO</text>
</g>
<!-- VARIABLE_TRACKER -->
<g id="node21" class="node">
<title>VARIABLE_TRACKER</title>
<path fill="none" stroke="black" d="M191.5,-1428.5C191.5,-1428.5 63,-1428.5 63,-1428.5 57,-1428.5 51,-1422.5 51,-1416.5 51,-1416.5 51,-1404.5 51,-1404.5 51,-1398.5 57,-1392.5 63,-1392.5 63,-1392.5 191.5,-1392.5 191.5,-1392.5 197.5,-1392.5 203.5,-1398.5 203.5,-1404.5 203.5,-1404.5 203.5,-1416.5 203.5,-1416.5 203.5,-1422.5 197.5,-1428.5 191.5,-1428.5"/>
<text xml:space="preserve" text-anchor="middle" x="127.25" y="-1405.45" font-family="Times New Roman,serif" font-size="14.00">VARIABLE_TRACKER</text>
</g>
<!-- COMMAND_HISTORY -->
<g id="node22" class="node">
<title>COMMAND_HISTORY</title>
<path fill="none" stroke="black" d="M192.25,-1500.5C192.25,-1500.5 62.25,-1500.5 62.25,-1500.5 56.25,-1500.5 50.25,-1494.5 50.25,-1488.5 50.25,-1488.5 50.25,-1476.5 50.25,-1476.5 50.25,-1470.5 56.25,-1464.5 62.25,-1464.5 62.25,-1464.5 192.25,-1464.5 192.25,-1464.5 198.25,-1464.5 204.25,-1470.5 204.25,-1476.5 204.25,-1476.5 204.25,-1488.5 204.25,-1488.5 204.25,-1494.5 198.25,-1500.5 192.25,-1500.5"/>
<text xml:space="preserve" text-anchor="middle" x="127.25" y="-1477.45" font-family="Times New Roman,serif" font-size="14.00">COMMAND_HISTORY</text>
</g>
<!-- HISTORY_ENTRY -->
<g id="node23" class="node">
<title>HISTORY_ENTRY</title>
<path fill="none" stroke="black" d="M177.62,-1572.5C177.62,-1572.5 76.88,-1572.5 76.88,-1572.5 70.88,-1572.5 64.88,-1566.5 64.88,-1560.5 64.88,-1560.5 64.88,-1548.5 64.88,-1548.5 64.88,-1542.5 70.88,-1536.5 76.88,-1536.5 76.88,-1536.5 177.62,-1536.5 177.62,-1536.5 183.62,-1536.5 189.62,-1542.5 189.62,-1548.5 189.62,-1548.5 189.62,-1560.5 189.62,-1560.5 189.62,-1566.5 183.62,-1572.5 177.62,-1572.5"/>
<text xml:space="preserve" text-anchor="middle" x="127.25" y="-1549.45" font-family="Times New Roman,serif" font-size="14.00">HISTORY_ENTRY</text>
</g>
<!-- NOTEBOOK_CLI -->
<g id="node24" class="node">
<title>NOTEBOOK_CLI</title>
<path fill="none" stroke="black" d="M174.62,-1644.5C174.62,-1644.5 79.88,-1644.5 79.88,-1644.5 73.88,-1644.5 67.88,-1638.5 67.88,-1632.5 67.88,-1632.5 67.88,-1620.5 67.88,-1620.5 67.88,-1614.5 73.88,-1608.5 79.88,-1608.5 79.88,-1608.5 174.62,-1608.5 174.62,-1608.5 180.62,-1608.5 186.62,-1614.5 186.62,-1620.5 186.62,-1620.5 186.62,-1632.5 186.62,-1632.5 186.62,-1638.5 180.62,-1644.5 174.62,-1644.5"/>
<text xml:space="preserve" text-anchor="middle" x="127.25" y="-1621.45" font-family="Times New Roman,serif" font-size="14.00">NOTEBOOK_CLI</text>
</g>
<!-- LIB_TESTS -->
<g id="node25" class="node">
<title>LIB_TESTS</title>
<path fill="none" stroke="black" d="M157.38,-1716.5C157.38,-1716.5 97.12,-1716.5 97.12,-1716.5 91.12,-1716.5 85.12,-1710.5 85.12,-1704.5 85.12,-1704.5 85.12,-1692.5 85.12,-1692.5 85.12,-1686.5 91.12,-1680.5 97.12,-1680.5 97.12,-1680.5 157.38,-1680.5 157.38,-1680.5 163.38,-1680.5 169.38,-1686.5 169.38,-1692.5 169.38,-1692.5 169.38,-1704.5 169.38,-1704.5 169.38,-1710.5 163.38,-1716.5 157.38,-1716.5"/>
<text xml:space="preserve" text-anchor="middle" x="127.25" y="-1693.45" font-family="Times New Roman,serif" font-size="14.00">LIB_TESTS</text>
</g>
<!-- TEST_APP -->
<g id="node26" class="node">
<title>TEST_APP</title>
<path fill="none" stroke="black" d="M155.12,-1788.5C155.12,-1788.5 99.38,-1788.5 99.38,-1788.5 93.38,-1788.5 87.38,-1782.5 87.38,-1776.5 87.38,-1776.5 87.38,-1764.5 87.38,-1764.5 87.38,-1758.5 93.38,-1752.5 99.38,-1752.5 99.38,-1752.5 155.12,-1752.5 155.12,-1752.5 161.12,-1752.5 167.12,-1758.5 167.12,-1764.5 167.12,-1764.5 167.12,-1776.5 167.12,-1776.5 167.12,-1782.5 161.12,-1788.5 155.12,-1788.5"/>
<text xml:space="preserve" text-anchor="middle" x="127.25" y="-1765.45" font-family="Times New Roman,serif" font-size="14.00">TEST_APP</text>
</g>
<!-- TEST_CLASSIFIER -->
<g id="node27" class="node">
<title>TEST_CLASSIFIER</title>
<path fill="none" stroke="black" d="M180.62,-1932.5C180.62,-1932.5 73.88,-1932.5 73.88,-1932.5 67.88,-1932.5 61.88,-1926.5 61.88,-1920.5 61.88,-1920.5 61.88,-1908.5 61.88,-1908.5 61.88,-1902.5 67.88,-1896.5 73.88,-1896.5 73.88,-1896.5 180.62,-1896.5 180.62,-1896.5 186.62,-1896.5 192.62,-1902.5 192.62,-1908.5 192.62,-1908.5 192.62,-1920.5 192.62,-1920.5 192.62,-1926.5 186.62,-1932.5 180.62,-1932.5"/>
<text xml:space="preserve" text-anchor="middle" x="127.25" y="-1909.45" font-family="Times New Roman,serif" font-size="14.00">TEST_CLASSIFIER</text>
</g>
<!-- EQA_TEST_SET -->
<g id="node28" class="node">
<title>EQA_TEST_SET</title>
<path fill="none" stroke="black" d="M467.38,-1896.5C467.38,-1896.5 377.88,-1896.5 377.88,-1896.5 371.88,-1896.5 365.88,-1890.5 365.88,-1884.5 365.88,-1884.5 365.88,-1872.5 365.88,-1872.5 365.88,-1866.5 371.88,-1860.5 377.88,-1860.5 377.88,-1860.5 467.38,-1860.5 467.38,-1860.5 473.38,-1860.5 479.38,-1866.5 479.38,-1872.5 479.38,-1872.5 479.38,-1884.5 479.38,-1884.5 479.38,-1890.5 473.38,-1896.5 467.38,-1896.5"/>
<text xml:space="preserve" text-anchor="middle" x="422.62" y="-1873.45" font-family="Times New Roman,serif" font-size="14.00">EQA_TEST_SET</text>
</g>
<!-- TEST_CLASSIFIER&#45;&gt;EQA_TEST_SET -->
<g id="edge2" class="edge">
<title>TEST_CLASSIFIER&#45;&gt;EQA_TEST_SET</title>
<path fill="none" stroke="black" d="M193.1,-1914.5C287.69,-1914.5 450.75,-1914.5 450.75,-1914.5 450.75,-1914.5 450.75,-1908.44 450.75,-1908.44"/>
<polygon fill="none" stroke="black" points="454.25,-1908.44 450.75,-1898.44 447.25,-1908.44 454.25,-1908.44"/>
</g>
<!-- TEST_CODE_GENERATION -->
<g id="node29" class="node">
<title>TEST_CODE_GENERATION</title>
<path fill="none" stroke="black" d="M207.25,-2364.5C207.25,-2364.5 47.25,-2364.5 47.25,-2364.5 41.25,-2364.5 35.25,-2358.5 35.25,-2352.5 35.25,-2352.5 35.25,-2340.5 35.25,-2340.5 35.25,-2334.5 41.25,-2328.5 47.25,-2328.5 47.25,-2328.5 207.25,-2328.5 207.25,-2328.5 213.25,-2328.5 219.25,-2334.5 219.25,-2340.5 219.25,-2340.5 219.25,-2352.5 219.25,-2352.5 219.25,-2358.5 213.25,-2364.5 207.25,-2364.5"/>
<text xml:space="preserve" text-anchor="middle" x="127.25" y="-2341.45" font-family="Times New Roman,serif" font-size="14.00">TEST_CODE_GENERATION</text>
</g>
<!-- TEST_SET_BASE -->
<g id="node30" class="node">
<title>TEST_SET_BASE</title>
<path fill="none" stroke="black" d="M470.75,-2184.5C470.75,-2184.5 374.5,-2184.5 374.5,-2184.5 368.5,-2184.5 362.5,-2178.5 362.5,-2172.5 362.5,-2172.5 362.5,-2160.5 362.5,-2160.5 362.5,-2154.5 368.5,-2148.5 374.5,-2148.5 374.5,-2148.5 470.75,-2148.5 470.75,-2148.5 476.75,-2148.5 482.75,-2154.5 482.75,-2160.5 482.75,-2160.5 482.75,-2172.5 482.75,-2172.5 482.75,-2178.5 476.75,-2184.5 470.75,-2184.5"/>
<text xml:space="preserve" text-anchor="middle" x="422.62" y="-2161.45" font-family="Times New Roman,serif" font-size="14.00">TEST_SET_BASE</text>
</g>
<!-- TEST_CODE_GENERATION&#45;&gt;TEST_SET_BASE -->
<g id="edge3" class="edge">
<title>TEST_CODE_GENERATION&#45;&gt;TEST_SET_BASE</title>
<path fill="none" stroke="black" d="M212.75,-2328.07C212.75,-2284.22 212.75,-2177.3 212.75,-2177.3 212.75,-2177.3 350.69,-2177.3 350.69,-2177.3"/>
<polygon fill="none" stroke="black" points="350.69,-2180.8 360.69,-2177.3 350.69,-2173.8 350.69,-2180.8"/>
</g>
<!-- TEST_COMPILATION -->
<g id="node31" class="node">
<title>TEST_COMPILATION</title>
<path fill="none" stroke="black" d="M188.88,-2292.5C188.88,-2292.5 65.62,-2292.5 65.62,-2292.5 59.62,-2292.5 53.62,-2286.5 53.62,-2280.5 53.62,-2280.5 53.62,-2268.5 53.62,-2268.5 53.62,-2262.5 59.62,-2256.5 65.62,-2256.5 65.62,-2256.5 188.88,-2256.5 188.88,-2256.5 194.88,-2256.5 200.88,-2262.5 200.88,-2268.5 200.88,-2268.5 200.88,-2280.5 200.88,-2280.5 200.88,-2286.5 194.88,-2292.5 188.88,-2292.5"/>
<text xml:space="preserve" text-anchor="middle" x="127.25" y="-2269.45" font-family="Times New Roman,serif" font-size="14.00">TEST_COMPILATION</text>
</g>
<!-- TEST_COMPILATION&#45;&gt;TEST_SET_BASE -->
<g id="edge4" class="edge">
<title>TEST_COMPILATION&#45;&gt;TEST_SET_BASE</title>
<path fill="none" stroke="black" d="M190.75,-2256.31C190.75,-2226.4 190.75,-2170.1 190.75,-2170.1 190.75,-2170.1 350.49,-2170.1 350.49,-2170.1"/>
<polygon fill="none" stroke="black" points="350.49,-2173.6 360.49,-2170.1 350.49,-2166.6 350.49,-2173.6"/>
</g>
<!-- TEST_CONFIG -->
<g id="node32" class="node">
<title>TEST_CONFIG</title>
<path fill="none" stroke="black" d="M167.88,-2220.5C167.88,-2220.5 86.62,-2220.5 86.62,-2220.5 80.62,-2220.5 74.62,-2214.5 74.62,-2208.5 74.62,-2208.5 74.62,-2196.5 74.62,-2196.5 74.62,-2190.5 80.62,-2184.5 86.62,-2184.5 86.62,-2184.5 167.88,-2184.5 167.88,-2184.5 173.88,-2184.5 179.88,-2190.5 179.88,-2196.5 179.88,-2196.5 179.88,-2208.5 179.88,-2208.5 179.88,-2214.5 173.88,-2220.5 167.88,-2220.5"/>
<text xml:space="preserve" text-anchor="middle" x="127.25" y="-2197.45" font-family="Times New Roman,serif" font-size="14.00">TEST_CONFIG</text>
</g>
<!-- TEST_CONFIG&#45;&gt;TEST_SET_BASE -->
<g id="edge5" class="edge">
<title>TEST_CONFIG&#45;&gt;TEST_SET_BASE</title>
<path fill="none" stroke="black" d="M126.75,-2184.09C126.75,-2173.75 126.75,-2162.9 126.75,-2162.9 126.75,-2162.9 350.52,-2162.9 350.52,-2162.9"/>
<polygon fill="none" stroke="black" points="350.52,-2166.4 360.52,-2162.9 350.52,-2159.4 350.52,-2166.4"/>
</g>
<!-- TEST_DATA_STRUCTURES -->
<g id="node33" class="node">
<title>TEST_DATA_STRUCTURES</title>
<path fill="none" stroke="black" d="M206.88,-2148.5C206.88,-2148.5 47.62,-2148.5 47.62,-2148.5 41.62,-2148.5 35.62,-2142.5 35.62,-2136.5 35.62,-2136.5 35.62,-2124.5 35.62,-2124.5 35.62,-2118.5 41.62,-2112.5 47.62,-2112.5 47.62,-2112.5 206.88,-2112.5 206.88,-2112.5 212.88,-2112.5 218.88,-2118.5 218.88,-2124.5 218.88,-2124.5 218.88,-2136.5 218.88,-2136.5 218.88,-2142.5 212.88,-2148.5 206.88,-2148.5"/>
<text xml:space="preserve" text-anchor="middle" x="127.25" y="-2125.45" font-family="Times New Roman,serif" font-size="14.00">TEST_DATA_STRUCTURES</text>
</g>
<!-- TEST_DATA_STRUCTURES&#45;&gt;TEST_SET_BASE -->
<g id="edge6" class="edge">
<title>TEST_DATA_STRUCTURES&#45;&gt;TEST_SET_BASE</title>
<path fill="none" stroke="black" d="M206.75,-2148.81C206.75,-2152.72 206.75,-2155.7 206.75,-2155.7 206.75,-2155.7 350.69,-2155.7 350.69,-2155.7"/>
<polygon fill="none" stroke="black" points="350.69,-2159.2 360.69,-2155.7 350.69,-2152.2 350.69,-2159.2"/>
</g>
<!-- TEST_ENGINE -->
<g id="node34" class="node">
<title>TEST_ENGINE</title>
<path fill="none" stroke="black" d="M167.88,-2076.5C167.88,-2076.5 86.62,-2076.5 86.62,-2076.5 80.62,-2076.5 74.62,-2070.5 74.62,-2064.5 74.62,-2064.5 74.62,-2052.5 74.62,-2052.5 74.62,-2046.5 80.62,-2040.5 86.62,-2040.5 86.62,-2040.5 167.88,-2040.5 167.88,-2040.5 173.88,-2040.5 179.88,-2046.5 179.88,-2052.5 179.88,-2052.5 179.88,-2064.5 179.88,-2064.5 179.88,-2070.5 173.88,-2076.5 167.88,-2076.5"/>
<text xml:space="preserve" text-anchor="middle" x="127.25" y="-2053.45" font-family="Times New Roman,serif" font-size="14.00">TEST_ENGINE</text>
</g>
<!-- TEST_ENGINE&#45;&gt;TEST_SET_BASE -->
<g id="edge7" class="edge">
<title>TEST_ENGINE&#45;&gt;TEST_SET_BASE</title>
<path fill="none" stroke="black" d="M180.22,-2058.5C257.94,-2058.5 393.75,-2058.5 393.75,-2058.5 393.75,-2058.5 393.75,-2136.67 393.75,-2136.67"/>
<polygon fill="none" stroke="black" points="390.25,-2136.67 393.75,-2146.67 397.25,-2136.67 390.25,-2136.67"/>
</g>
<!-- TEST_SYNTAX_COMPLETENESS -->
<g id="node35" class="node">
<title>TEST_SYNTAX_COMPLETENESS</title>
<path fill="none" stroke="black" d="M225.62,-1860.5C225.62,-1860.5 28.88,-1860.5 28.88,-1860.5 22.88,-1860.5 16.88,-1854.5 16.88,-1848.5 16.88,-1848.5 16.88,-1836.5 16.88,-1836.5 16.88,-1830.5 22.88,-1824.5 28.88,-1824.5 28.88,-1824.5 225.62,-1824.5 225.62,-1824.5 231.62,-1824.5 237.62,-1830.5 237.62,-1836.5 237.62,-1836.5 237.62,-1848.5 237.62,-1848.5 237.62,-1854.5 231.62,-1860.5 225.62,-1860.5"/>
<text xml:space="preserve" text-anchor="middle" x="127.25" y="-1837.45" font-family="Times New Roman,serif" font-size="14.00">TEST_SYNTAX_COMPLETENESS</text>
</g>
<!-- TEST_SYNTAX_COMPLETENESS&#45;&gt;EQA_TEST_SET -->
<g id="edge8" class="edge">
<title>TEST_SYNTAX_COMPLETENESS&#45;&gt;EQA_TEST_SET</title>
<path fill="none" stroke="black" d="M231.75,-1860.92C231.75,-1869.78 231.75,-1878.5 231.75,-1878.5 231.75,-1878.5 354.1,-1878.5 354.1,-1878.5"/>
<polygon fill="none" stroke="black" points="354.1,-1882 364.1,-1878.5 354.1,-1875 354.1,-1882"/>
</g>
<!-- TEST_VARIABLE_TRACKING -->
<g id="node36" class="node">
<title>TEST_VARIABLE_TRACKING</title>
<path fill="none" stroke="black" d="M214.38,-2004.5C214.38,-2004.5 40.12,-2004.5 40.12,-2004.5 34.12,-2004.5 28.13,-1998.5 28.13,-1992.5 28.13,-1992.5 28.13,-1980.5 28.13,-1980.5 28.13,-1974.5 34.13,-1968.5 40.13,-1968.5 40.13,-1968.5 214.38,-1968.5 214.38,-1968.5 220.38,-1968.5 226.38,-1974.5 226.38,-1980.5 226.38,-1980.5 226.38,-1992.5 226.38,-1992.5 226.38,-1998.5 220.38,-2004.5 214.38,-2004.5"/>
<text xml:space="preserve" text-anchor="middle" x="127.25" y="-1981.45" font-family="Times New Roman,serif" font-size="14.00">TEST_VARIABLE_TRACKING</text>
</g>
<!-- TEST_VARIABLE_TRACKING&#45;&gt;TEST_SET_BASE -->
<g id="edge9" class="edge">
<title>TEST_VARIABLE_TRACKING&#45;&gt;TEST_SET_BASE</title>
<path fill="none" stroke="black" d="M226.47,-1986.5C312.32,-1986.5 422.75,-1986.5 422.75,-1986.5 422.75,-1986.5 422.75,-2136.74 422.75,-2136.74"/>
<polygon fill="none" stroke="black" points="419.25,-2136.74 422.75,-2146.74 426.25,-2136.74 419.25,-2136.74"/>
</g>
</g>
</svg>
