<?xml version="1.0" encoding="UTF-8" standalone="no"?>
<!DOCTYPE svg PUBLIC "-//W3C//DTD SVG 1.1//EN"
 "http://www.w3.org/Graphics/SVG/1.1/DTD/svg11.dtd">
<!-- Generated by graphviz version 14.1.1 (20251213.1925)
 -->
<!-- Title: Dependencies Pages: 1 -->
<svg width="369pt" height="645pt"
 viewBox="0.00 0.00 369.00 645.00" xmlns="http://www.w3.org/2000/svg" xmlns:xlink="http://www.w3.org/1999/xlink">
<g id="graph0" class="graph" transform="scale(1 1) rotate(0) translate(4 640.5)">
<title>Dependencies</title>
<polygon fill="white" stroke="none" points="-4,4 -4,-640.5 364.5,-640.5 364.5,4 -4,4"/>
<text xml:space="preserve" text-anchor="middle" x="180.25" y="-7.2" font-family="Times New Roman,serif" font-size="14.00">simple_notebook &#45; Dependencies</text>
<!-- simple_notebook -->
<g id="node1" class="node">
<title>simple_notebook</title>
<polygon fill="lightblue" stroke="black" points="109.75,-348.5 0,-348.5 0,-312.5 109.75,-312.5 109.75,-348.5"/>
<text xml:space="preserve" text-anchor="middle" x="54.88" y="-325.45" font-family="Times New Roman,serif" font-size="14.00">simple_notebook</text>
</g>
<!-- simple_json -->
<g id="node2" class="node">
<title>simple_json</title>
<polygon fill="lightblue" stroke="black" points="348.12,-636.5 266.12,-636.5 266.12,-600.5 348.12,-600.5 348.12,-636.5"/>
<text xml:space="preserve" text-anchor="middle" x="307.12" y="-613.45" font-family="Times New Roman,serif" font-size="14.00">simple_json</text>
</g>
<!-- simple_notebook&#45;&gt;simple_json -->
<g id="edge1" class="edge">
<title>simple_notebook&#45;&gt;simple_json</title>
<path fill="none" stroke="black" stroke-dasharray="5,2" d="M21.5,-348.95C21.5,-412.52 21.5,-618.5 21.5,-618.5 21.5,-618.5 254.38,-618.5 254.38,-618.5"/>
<polygon fill="black" stroke="black" points="254.38,-622 264.38,-618.5 254.38,-615 254.38,-622"/>
</g>
<!-- simple_file -->
<g id="node3" class="node">
<title>simple_file</title>
<polygon fill="lightblue" stroke="black" points="345.88,-564.5 268.38,-564.5 268.38,-528.5 345.88,-528.5 345.88,-564.5"/>
<text xml:space="preserve" text-anchor="middle" x="307.12" y="-541.45" font-family="Times New Roman,serif" font-size="14.00">simple_file</text>
</g>
<!-- simple_notebook&#45;&gt;simple_file -->
<g id="edge2" class="edge">
<title>simple_notebook&#45;&gt;simple_file</title>
<path fill="none" stroke="black" stroke-dasharray="5,2" d="M43.5,-348.92C43.5,-401.15 43.5,-546.5 43.5,-546.5 43.5,-546.5 256.43,-546.5 256.43,-546.5"/>
<polygon fill="black" stroke="black" points="256.43,-550 266.43,-546.5 256.43,-543 256.43,-550"/>
</g>
<!-- simple_process -->
<g id="node4" class="node">
<title>simple_process</title>
<polygon fill="lightblue" stroke="black" points="357.12,-492.5 257.12,-492.5 257.12,-456.5 357.12,-456.5 357.12,-492.5"/>
<text xml:space="preserve" text-anchor="middle" x="307.12" y="-469.45" font-family="Times New Roman,serif" font-size="14.00">simple_process</text>
</g>
<!-- simple_notebook&#45;&gt;simple_process -->
<g id="edge3" class="edge">
<title>simple_notebook&#45;&gt;simple_process</title>
<path fill="none" stroke="black" stroke-dasharray="5,2" d="M65.5,-348.74C65.5,-387.49 65.5,-474.5 65.5,-474.5 65.5,-474.5 245.25,-474.5 245.25,-474.5"/>
<polygon fill="black" stroke="black" points="245.25,-478 255.25,-474.5 245.25,-471 245.25,-478"/>
</g>
<!-- simple_uuid -->
<g id="node5" class="node">
<title>simple_uuid</title>
<polygon fill="lightblue" stroke="black" points="348.88,-420.5 265.38,-420.5 265.38,-384.5 348.88,-384.5 348.88,-420.5"/>
<text xml:space="preserve" text-anchor="middle" x="307.12" y="-397.45" font-family="Times New Roman,serif" font-size="14.00">simple_uuid</text>
</g>
<!-- simple_notebook&#45;&gt;simple_uuid -->
<g id="edge4" class="edge">
<title>simple_notebook&#45;&gt;simple_uuid</title>
<path fill="none" stroke="black" stroke-dasharray="5,2" d="M87.5,-348.67C87.5,-370 87.5,-402.5 87.5,-402.5 87.5,-402.5 253.53,-402.5 253.53,-402.5"/>
<polygon fill="black" stroke="black" points="253.53,-406 263.53,-402.5 253.53,-399 253.53,-406"/>
</g>
<!-- simple_template -->
<g id="node6" class="node">
<title>simple_template</title>
<polygon fill="lightblue" stroke="black" points="360.5,-348.5 253.75,-348.5 253.75,-312.5 360.5,-312.5 360.5,-348.5"/>
<text xml:space="preserve" text-anchor="middle" x="307.12" y="-325.45" font-family="Times New Roman,serif" font-size="14.00">simple_template</text>
</g>
<!-- simple_notebook&#45;&gt;simple_template -->
<g id="edge5" class="edge">
<title>simple_notebook&#45;&gt;simple_template</title>
<path fill="none" stroke="black" stroke-dasharray="5,2" d="M110.23,-330.5C110.23,-330.5 242.11,-330.5 242.11,-330.5"/>
<polygon fill="black" stroke="black" points="242.11,-334 252.11,-330.5 242.11,-327 242.11,-334"/>
</g>
<!-- simple_testing -->
<g id="node7" class="node">
<title>simple_testing</title>
<polygon fill="lightblue" stroke="black" points="354.88,-276.5 259.38,-276.5 259.38,-240.5 354.88,-240.5 354.88,-276.5"/>
<text xml:space="preserve" text-anchor="middle" x="307.12" y="-253.45" font-family="Times New Roman,serif" font-size="14.00">simple_testing</text>
</g>
<!-- simple_notebook&#45;&gt;simple_testing -->
<g id="edge6" class="edge">
<title>simple_notebook&#45;&gt;simple_testing</title>
<path fill="none" stroke="black" stroke-dasharray="5,2" d="M87.5,-312.33C87.5,-291 87.5,-258.5 87.5,-258.5 87.5,-258.5 247.41,-258.5 247.41,-258.5"/>
<polygon fill="black" stroke="black" points="247.41,-262 257.41,-258.5 247.41,-255 247.41,-262"/>
</g>
<!-- base -->
<g id="node8" class="node">
<title>base</title>
<polygon fill="lightgray" stroke="black" points="334.12,-204.5 280.12,-204.5 280.12,-168.5 334.12,-168.5 334.12,-204.5"/>
<text xml:space="preserve" text-anchor="middle" x="307.12" y="-181.45" font-family="Times New Roman,serif" font-size="14.00">base</text>
</g>
<!-- simple_notebook&#45;&gt;base -->
<g id="edge7" class="edge">
<title>simple_notebook&#45;&gt;base</title>
<path fill="none" stroke="black" stroke-dasharray="5,2" d="M65.5,-312.26C65.5,-273.51 65.5,-186.5 65.5,-186.5 65.5,-186.5 268.36,-186.5 268.36,-186.5"/>
<polygon fill="black" stroke="black" points="268.36,-190 278.36,-186.5 268.36,-183 268.36,-190"/>
</g>
<!-- time -->
<g id="node9" class="node">
<title>time</title>
<polygon fill="lightgray" stroke="black" points="334.12,-132.5 280.12,-132.5 280.12,-96.5 334.12,-96.5 334.12,-132.5"/>
<text xml:space="preserve" text-anchor="middle" x="307.12" y="-109.45" font-family="Times New Roman,serif" font-size="14.00">time</text>
</g>
<!-- simple_notebook&#45;&gt;time -->
<g id="edge8" class="edge">
<title>simple_notebook&#45;&gt;time</title>
<path fill="none" stroke="black" stroke-dasharray="5,2" d="M43.5,-312.08C43.5,-259.85 43.5,-114.5 43.5,-114.5 43.5,-114.5 268.39,-114.5 268.39,-114.5"/>
<polygon fill="black" stroke="black" points="268.39,-118 278.39,-114.5 268.39,-111 268.39,-118"/>
</g>
<!-- testing -->
<g id="node10" class="node">
<title>testing</title>
<polygon fill="lightgray" stroke="black" points="334.12,-60.5 280.12,-60.5 280.12,-24.5 334.12,-24.5 334.12,-60.5"/>
<text xml:space="preserve" text-anchor="middle" x="307.12" y="-37.45" font-family="Times New Roman,serif" font-size="14.00">testing</text>
</g>
<!-- simple_notebook&#45;&gt;testing -->
<g id="edge9" class="edge">
<title>simple_notebook&#45;&gt;testing</title>
<path fill="none" stroke="black" stroke-dasharray="5,2" d="M21.5,-312.05C21.5,-248.48 21.5,-42.5 21.5,-42.5 21.5,-42.5 268.22,-42.5 268.22,-42.5"/>
<polygon fill="black" stroke="black" points="268.22,-46 278.22,-42.5 268.22,-39 268.22,-46"/>
</g>
</g>
</svg>
